G04*
G04 #@! TF.GenerationSoftware,Altium Limited,Altium Designer,21.0.8 (223)*
G04*
G04 Layer_Physical_Order=4*
G04 Layer_Color=16711680*
%FSLAX44Y44*%
%MOMM*%
G71*
G04*
G04 #@! TF.SameCoordinates,7CDD385B-C779-46FA-83BF-CCD77B293E39*
G04*
G04*
G04 #@! TF.FilePolarity,Positive*
G04*
G01*
G75*
%ADD16R,1.0000X0.9000*%
%ADD19R,0.9000X1.0000*%
%ADD21R,0.9500X0.8500*%
%ADD24R,0.9000X0.8000*%
%ADD73C,1.5240*%
%ADD74C,0.2540*%
%ADD75C,0.3810*%
%ADD76C,0.6350*%
%ADD77C,0.7620*%
%ADD78C,0.5080*%
%ADD80O,2.5000X1.5000*%
%ADD81C,2.0000*%
%ADD82C,1.7000*%
%ADD83O,1.6000X0.9000*%
%ADD84C,0.7000*%
%ADD85C,0.9000*%
%ADD91R,0.5500X0.8000*%
%ADD92R,1.4000X1.3000*%
%ADD93R,1.3000X0.5300*%
%ADD94R,0.6500X2.5400*%
%ADD95C,1.0000*%
%ADD96O,1.4500X0.6000*%
%ADD97R,2.4100X3.1000*%
%ADD98R,0.8500X0.9500*%
G36*
X-115570Y-157480D02*
X-58420D01*
Y-177800D01*
X-65767D01*
X-67432Y-177110D01*
X-69728D01*
X-71393Y-177800D01*
X-77320D01*
Y-175705D01*
X-95400D01*
Y-177800D01*
X-101327D01*
X-102992Y-177110D01*
X-105288D01*
X-106953Y-177800D01*
X-125594D01*
X-126566Y-176346D01*
X-128398Y-175121D01*
X-130560Y-174692D01*
X-132905D01*
Y-180340D01*
X-136715D01*
Y-174692D01*
X-137160D01*
Y-173288D01*
X-136715D01*
Y-167640D01*
Y-161992D01*
X-137160D01*
Y-160588D01*
X-136715D01*
Y-154940D01*
Y-149291D01*
X-137160D01*
Y-146050D01*
X-115570D01*
Y-157480D01*
D02*
G37*
G36*
X-58420Y-198120D02*
X-121920D01*
Y-178900D01*
X-111241D01*
X-110606Y-180000D01*
X-110700Y-180163D01*
X-110918Y-180975D01*
X-97362D01*
X-97580Y-180163D01*
X-97674Y-180000D01*
X-97039Y-178900D01*
X-95400D01*
Y-179895D01*
X-77320D01*
Y-178900D01*
X-75681D01*
X-75046Y-180000D01*
X-75140Y-180163D01*
X-75358Y-180975D01*
X-61802D01*
X-62020Y-180163D01*
X-62114Y-180000D01*
X-61479Y-178900D01*
X-58420D01*
Y-198120D01*
D02*
G37*
%LPC*%
G36*
X-130560Y-149291D02*
X-132905D01*
Y-153035D01*
X-125290D01*
X-125342Y-152778D01*
X-126566Y-150946D01*
X-128398Y-149721D01*
X-130560Y-149291D01*
D02*
G37*
G36*
X-125290Y-156845D02*
X-132905D01*
Y-160588D01*
X-130560D01*
X-128398Y-160159D01*
X-126566Y-158934D01*
X-125342Y-157102D01*
X-125290Y-156845D01*
D02*
G37*
G36*
X-130560Y-161992D02*
X-132905D01*
Y-165735D01*
X-125290D01*
X-125342Y-165478D01*
X-126566Y-163646D01*
X-128398Y-162421D01*
X-130560Y-161992D01*
D02*
G37*
G36*
X-67631Y-160330D02*
X-69529D01*
X-71282Y-161056D01*
X-72624Y-162398D01*
X-73350Y-164151D01*
Y-166049D01*
X-72624Y-167802D01*
X-71282Y-169144D01*
X-69529Y-169870D01*
X-67631D01*
X-65878Y-169144D01*
X-64536Y-167802D01*
X-63810Y-166049D01*
Y-164151D01*
X-64536Y-162398D01*
X-65878Y-161056D01*
X-67631Y-160330D01*
D02*
G37*
G36*
X-77320Y-168610D02*
X-84455D01*
Y-171895D01*
X-77320D01*
Y-168610D01*
D02*
G37*
G36*
X-88265D02*
X-95400D01*
Y-171895D01*
X-88265D01*
Y-168610D01*
D02*
G37*
G36*
X-125290Y-169545D02*
X-132905D01*
Y-173288D01*
X-130560D01*
X-128398Y-172859D01*
X-126566Y-171634D01*
X-125342Y-169802D01*
X-125290Y-169545D01*
D02*
G37*
G36*
X-77320Y-183705D02*
X-84455D01*
Y-186990D01*
X-77320D01*
Y-183705D01*
D02*
G37*
G36*
X-88265D02*
X-95400D01*
Y-186990D01*
X-88265D01*
Y-183705D01*
D02*
G37*
G36*
X-61802Y-184785D02*
X-66675D01*
Y-189658D01*
X-65863Y-189440D01*
X-64257Y-188513D01*
X-62947Y-187203D01*
X-62020Y-185597D01*
X-61802Y-184785D01*
D02*
G37*
G36*
X-70485D02*
X-75358D01*
X-75140Y-185597D01*
X-74213Y-187203D01*
X-72903Y-188513D01*
X-71297Y-189440D01*
X-70485Y-189658D01*
Y-184785D01*
D02*
G37*
G36*
X-97362D02*
X-102235D01*
Y-189658D01*
X-101423Y-189440D01*
X-99817Y-188513D01*
X-98507Y-187203D01*
X-97580Y-185597D01*
X-97362Y-184785D01*
D02*
G37*
G36*
X-106045D02*
X-110918D01*
X-110700Y-185597D01*
X-109773Y-187203D01*
X-108463Y-188513D01*
X-106857Y-189440D01*
X-106045Y-189658D01*
Y-184785D01*
D02*
G37*
%LPD*%
D16*
X-57150Y120250D02*
D03*
Y133750D02*
D03*
D19*
X107550Y-45720D02*
D03*
X121050D02*
D03*
Y-20320D02*
D03*
X107550D02*
D03*
X107150Y-101600D02*
D03*
X120650D02*
D03*
X106280Y39370D02*
D03*
X119780D02*
D03*
X-82550Y120650D02*
D03*
X-96050D02*
D03*
X-174390Y-209550D02*
D03*
X-160890D02*
D03*
D21*
X163830Y101600D02*
D03*
Y88600D02*
D03*
D24*
X104300Y-73660D02*
D03*
X124300Y-83160D02*
D03*
Y-64160D02*
D03*
X143350Y70460D02*
D03*
Y51460D02*
D03*
X123350Y60960D02*
D03*
D73*
X-41910Y-142240D02*
D03*
X-21590D02*
D03*
X-12700Y-162560D02*
D03*
X-223520Y-179070D02*
D03*
X-62230Y-142240D02*
D03*
X-82550D02*
D03*
X-102870D02*
D03*
X123190Y-140970D02*
D03*
X-3810Y-80010D02*
D03*
Y-39370D02*
D03*
Y-59690D02*
D03*
X-186690Y-127000D02*
D03*
X185420Y-168910D02*
D03*
X142240Y91440D02*
D03*
D74*
X-39370Y-132080D02*
X-29210Y-121920D01*
X-68580Y-128270D02*
X-44450D01*
X-52070Y-132080D02*
X-39370D01*
X-62230Y-142240D02*
X-52070Y-132080D01*
X-44450Y-128270D02*
X-38100Y-121920D01*
X-175260Y120650D02*
X-143510D01*
X-182369Y95281D02*
Y113541D01*
X-175260Y120650D01*
X-171668Y95982D02*
Y110272D01*
X-172400Y95250D02*
X-171668Y95982D01*
X-167640Y114300D02*
X-139700D01*
X-171668Y110272D02*
X-167640Y114300D01*
X-30480Y-187960D02*
X63500D01*
X-39370Y-179070D02*
X-30480Y-187960D01*
X63500D02*
X84366Y-167094D01*
X104800Y22160D02*
X105809Y21151D01*
Y16111D02*
Y21151D01*
Y16111D02*
X110490Y11430D01*
X119162D01*
X4376Y-13556D02*
X12700Y-21880D01*
X-3810Y-80010D02*
X12700Y-63500D01*
Y-21880D01*
X-3810Y-59690D02*
X7620Y-48260D01*
X-33368Y13970D02*
X7620Y-27018D01*
Y-48260D02*
Y-27018D01*
X-7447Y-66764D02*
X-3810Y-63127D01*
X-7447Y-67137D02*
Y-66764D01*
X-24130Y-105410D02*
Y-83820D01*
X-3810Y-63127D02*
Y-59690D01*
X-24130Y-83820D02*
X-7447Y-67137D01*
X-28380Y-81720D02*
X-17780Y-71120D01*
Y-53340D02*
X-3810Y-39370D01*
X-17780Y-71120D02*
Y-53340D01*
X-32400Y-93150D02*
Y-83700D01*
X-30420Y-81720D01*
X-28380D01*
X-82550Y-142240D02*
X-68580Y-128270D01*
X-221253Y-176803D02*
X-205323D01*
X-204470Y-175950D01*
X-223520Y-179070D02*
X-221253Y-176803D01*
X-13335Y-178435D02*
Y-163195D01*
X-12700Y-162560D01*
X-13970Y-179070D02*
X-13335Y-178435D01*
X-200080Y-180340D02*
X-190310D01*
X-204470Y-175950D02*
X-200080Y-180340D01*
X41910Y-17780D02*
X45410Y-21280D01*
X42327Y19467D02*
X43180Y20320D01*
X41910Y16602D02*
X42327Y17019D01*
X45410Y-68396D02*
Y-21280D01*
X42327Y17019D02*
Y19467D01*
X41910Y-17780D02*
Y16602D01*
X42267Y-71540D02*
X45410Y-68396D01*
X42267Y-72747D02*
Y-71540D01*
X59690Y-55880D02*
Y-24130D01*
X50800Y-15240D02*
X59690Y-24130D01*
X-2540Y-122555D02*
Y-121920D01*
X-21590Y-142240D02*
Y-141605D01*
X-2540Y-122555D01*
X-20668Y-121920D02*
X-20320D01*
X-41910Y-142240D02*
X-40988D01*
X-20668Y-121920D01*
X-92710D02*
X-55880D01*
X-102870Y-142240D02*
Y-132080D01*
X-92710Y-121920D01*
X-207228Y-163612D02*
Y-150078D01*
X-195886Y-167145D02*
X-195390Y-167640D01*
X-207228Y-163612D02*
X-203695Y-167145D01*
X-195886D01*
X-207228Y-150078D02*
X-198120Y-140970D01*
X-165250D01*
X-172400Y-112710D02*
Y-93150D01*
X-186690Y-127000D02*
X-172400Y-112710D01*
X-27940Y-109220D02*
X-24130Y-105410D01*
X-39236Y-109220D02*
X-27940D01*
X-42400Y-93150D02*
X-40724Y-94826D01*
Y-107732D02*
Y-94826D01*
Y-107732D02*
X-39236Y-109220D01*
X-44450Y-114300D02*
X-24130D01*
X-50871Y-107879D02*
X-44450Y-114300D01*
X-24130D02*
X-6240Y-96410D01*
X-68580Y13970D02*
X-33368D01*
X4376Y-13556D02*
Y-12990D01*
X-6240Y-82440D02*
X-3810Y-80010D01*
X-21590Y-6350D02*
X-21590D01*
X-3810Y-24130D01*
Y-39370D02*
Y-24130D01*
X-50871Y-107879D02*
Y-94679D01*
X-52400Y-93150D02*
X-50871Y-94679D01*
X-6240Y-96410D02*
Y-82440D01*
X28357Y80427D02*
Y85507D01*
X10160Y62230D02*
X28357Y80427D01*
Y85507D02*
X29210Y86360D01*
X38100Y142240D02*
Y160020D01*
X19050Y-16510D02*
X38517Y-35977D01*
Y-41057D02*
Y-35977D01*
Y-41057D02*
X39370Y-41910D01*
X8890Y-139700D02*
Y-121920D01*
X16510Y-176530D02*
Y-176343D01*
X12700Y-172533D02*
Y-171326D01*
Y-172533D02*
X16510Y-176343D01*
X-39370Y-179070D02*
Y-167640D01*
X-67945Y-11430D02*
X-67310D01*
X-86995Y-30480D02*
X-67945Y-11430D01*
X-87630Y-30480D02*
X-86995D01*
X-172400Y-74635D02*
X-96495Y1270D01*
X-68580D01*
X-172400Y-93150D02*
Y-74635D01*
X-25400Y-67310D02*
Y-25400D01*
X60960Y26670D02*
X77887Y43597D01*
Y47407D01*
X78740Y48260D01*
X122320Y14588D02*
Y20680D01*
X119162Y11430D02*
X122320Y14588D01*
Y20680D02*
X123800Y22160D01*
X-127000Y137160D02*
Y152400D01*
X-143510Y120650D02*
X-127000Y137160D01*
X-182400Y95250D02*
X-182369Y95281D01*
X-139700Y114300D02*
X-101600Y152400D01*
X84366Y-167031D02*
X86360Y-165037D01*
X84366Y-167094D02*
Y-167031D01*
X86360Y-165037D02*
Y-163830D01*
X16510Y-176530D02*
X30480D01*
X62293Y-129540D02*
X66103Y-133350D01*
X26670Y-129540D02*
X62293D01*
X66103Y-133350D02*
X67310D01*
D75*
X163830Y101600D02*
X164330D01*
X166675Y103945D02*
Y104445D01*
X169776Y107546D02*
X181901D01*
X183556Y109200D02*
X188460D01*
X181901Y107546D02*
X183556Y109200D01*
X166675Y104445D02*
X169776Y107546D01*
X164330Y101600D02*
X166675Y103945D01*
X-86360Y-64770D02*
X-78740D01*
X-78327Y-65183D01*
X-92400Y-70810D02*
X-86360Y-64770D01*
X-92400Y-93150D02*
Y-70810D01*
X-187399Y-43741D02*
X-182400Y-48740D01*
X-188130Y-43741D02*
X-187399D01*
X-193365Y-39370D02*
X-192502D01*
X-188130Y-43741D01*
X-182400Y-93150D02*
Y-48740D01*
D76*
X107867Y-35470D02*
X111587Y-31750D01*
X140970D01*
X107867Y-45402D02*
Y-35470D01*
X99227Y-78233D02*
X103800Y-73660D01*
X92710Y-78740D02*
X93217Y-78233D01*
X103800Y-73660D02*
X104300D01*
X93217Y-78233D02*
X99227D01*
X-192325Y-93075D02*
Y-72392D01*
X-191770Y-71837D02*
Y-71120D01*
X-192400Y-93150D02*
X-192325Y-93075D01*
Y-72392D02*
X-191770Y-71837D01*
X-162560Y-173990D02*
X-160890Y-175660D01*
Y-209550D02*
Y-175660D01*
X-185885Y-155115D02*
X-185684Y-155316D01*
X-171435Y-161665D02*
X-171435D01*
X-177784Y-155316D02*
X-171435Y-161665D01*
X-186235Y-155115D02*
X-185885D01*
X-185684Y-155316D02*
X-177784D01*
X-171435Y-161665D02*
X-162560Y-170540D01*
Y-173990D02*
Y-170540D01*
X-155850Y-163830D02*
X-152250Y-160230D01*
Y-140970D01*
X-156210Y-163830D02*
X-155850D01*
X113030Y-128404D02*
X123190Y-138564D01*
Y-140970D02*
Y-138564D01*
X113030Y-128404D02*
Y-127000D01*
X120650Y-119380D02*
Y-101100D01*
X113030Y-127000D02*
X120650Y-119380D01*
X86360Y-127000D02*
X113030D01*
X68580Y-109220D02*
X86360Y-127000D01*
X106783Y-101967D02*
X107150Y-101600D01*
X107550Y-45720D02*
X107867Y-45402D01*
X105625Y-74485D02*
X105825Y-99775D01*
X104300Y-73660D02*
X105625Y-74485D01*
X105825Y-99775D02*
X107150Y-101600D01*
X105625Y-72835D02*
X106225Y-47545D01*
X107550Y-45720D01*
X104300Y-73660D02*
X105625Y-72835D01*
X121050Y-46220D02*
X124300Y-49470D01*
Y-64160D02*
Y-49470D01*
X121050Y-46220D02*
Y-45720D01*
X124300Y-97450D02*
Y-83160D01*
X120650Y-101100D02*
X124300Y-97450D01*
D77*
X105220Y60770D02*
X123160D01*
X85354Y40904D02*
X105220Y60770D01*
X85354Y23124D02*
Y40904D01*
X174732Y-160284D02*
X183358Y-168910D01*
X170180Y-160020D02*
X170444Y-160284D01*
X183358Y-168910D02*
X185420D01*
X170444Y-160284D02*
X174732D01*
X-210446Y-193040D02*
X-190310D01*
X-211716Y-194310D02*
X-210446Y-193040D01*
X-212090Y-194310D02*
X-211716D01*
X-134810Y-180340D02*
Y-167640D01*
Y-193040D02*
Y-180340D01*
Y-167640D02*
Y-154940D01*
X131716Y-31486D02*
X140706D01*
X140970Y-31750D01*
X121050Y-20820D02*
X131716Y-31486D01*
X121050Y-20820D02*
Y-20320D01*
X85090Y22860D02*
X85354Y23124D01*
X123160Y60770D02*
X123350Y60960D01*
X143430Y62310D02*
Y70380D01*
X143350Y70460D02*
X143430Y70380D01*
Y62310D02*
X143510Y62230D01*
X119780Y39370D02*
X133350D01*
D78*
X143350Y51460D02*
X144810Y50000D01*
X150900D02*
X163330Y37570D01*
X144810Y50000D02*
X150900D01*
X108240Y41330D02*
Y47280D01*
X112420Y51460D02*
X143350D01*
X106280Y39370D02*
X108240Y41330D01*
Y47280D02*
X112420Y51460D01*
X-182537Y-209893D02*
X-174733D01*
X-174390Y-209550D01*
X-190964Y-201466D02*
X-182537Y-209893D01*
X-190964Y-201466D02*
Y-193465D01*
X143350Y70460D02*
X159940D01*
X163830Y66570D01*
Y88600D01*
X142240Y71920D02*
X143350Y70460D01*
X142240Y71920D02*
Y91440D01*
X-134810Y-167640D02*
X-93980D01*
X-88900Y-172720D01*
X-191690Y74850D02*
Y94540D01*
Y74850D02*
X-186690Y69850D01*
X-104140D01*
X-192400Y95250D02*
X-191690Y94540D01*
X-104140Y69850D02*
X-93110Y80880D01*
Y94540D01*
X-92400Y95250D01*
X-56230Y132830D02*
X-46470D01*
X-57150Y133750D02*
X-56230Y132830D01*
X-46470D02*
X-45720Y132080D01*
X-83110Y94690D02*
X-82475Y95325D01*
X-83110Y78004D02*
Y94690D01*
X-85107Y74947D02*
Y76008D01*
X-83110Y78004D01*
X124300Y-64160D02*
X124910Y-64770D01*
X143510D01*
X156210Y-52070D01*
Y-30480D01*
X143350Y-17620D02*
X156210Y-30480D01*
X143350Y-17620D02*
Y51460D01*
X105010Y22370D02*
Y38600D01*
X117820Y32730D02*
Y37410D01*
X119780Y39370D01*
X114510Y22370D02*
Y29420D01*
X117820Y32730D01*
X114300Y22160D02*
X114510Y22370D01*
X106915Y-20955D02*
X107550Y-20320D01*
X86995Y-20955D02*
X106915D01*
X86360Y-21590D02*
X86995Y-20955D01*
X163330Y37570D02*
X163830D01*
X104800Y22160D02*
X105010Y22370D01*
X104800Y-17070D02*
X107550Y-19820D01*
X104800Y-17070D02*
Y-1840D01*
X107550Y-20320D02*
Y-19820D01*
X-93110Y95960D02*
X-92400Y95250D01*
X-93980Y108386D02*
Y115214D01*
X-93110Y95960D02*
Y107516D01*
X-93980Y108386D02*
X-93110Y107516D01*
X-94090Y115324D02*
X-93980Y115214D01*
X-94090Y115324D02*
Y118190D01*
X-96050Y120150D02*
X-94090Y118190D01*
X-96050Y120150D02*
Y120650D01*
X-94090Y122610D02*
Y123639D01*
X-83979Y133750D02*
X-57150D01*
X-94090Y123639D02*
X-83979Y133750D01*
X-96050Y120650D02*
X-94090Y122610D01*
X-82475Y120575D02*
X-82350Y120450D01*
X-82550Y120650D02*
X-82475Y120575D01*
X-82350Y120450D02*
X-57350D01*
X-57150Y120250D01*
X-82475Y95325D02*
Y120575D01*
D80*
X175260Y-21430D02*
D03*
Y-1430D02*
D03*
D81*
X-310061Y293190D02*
D03*
X-292100Y311150D02*
D03*
Y-311150D02*
D03*
X-310061Y-293190D02*
D03*
X299540Y316411D02*
D03*
X317500Y298450D02*
D03*
X311150Y-292100D02*
D03*
X293190Y-310061D02*
D03*
D82*
X-152400Y177800D02*
D03*
X-101600D02*
D03*
X-152400Y152400D02*
D03*
X-127000D02*
D03*
Y177800D02*
D03*
X-101600Y152400D02*
D03*
X127000Y177800D02*
D03*
Y127000D02*
D03*
X101600D02*
D03*
X127000Y152400D02*
D03*
X101600D02*
D03*
Y177800D02*
D03*
X-25400D02*
D03*
X-50800D02*
D03*
X-76200D02*
D03*
X0D02*
D03*
X25400D02*
D03*
X50800D02*
D03*
X76200D02*
D03*
D83*
X188460Y43200D02*
D03*
Y109200D02*
D03*
D84*
X-46990Y-121920D02*
D03*
X77841Y-133458D02*
D03*
X-13970Y-179070D02*
D03*
X42267Y-72747D02*
D03*
X43180Y20320D02*
D03*
X59690Y-55880D02*
D03*
X-204470Y-175950D02*
D03*
X-119380Y-138430D02*
D03*
X4376Y-12990D02*
D03*
X-21590Y-6350D02*
D03*
X-2540Y-121920D02*
D03*
X-11430D02*
D03*
X-20320D02*
D03*
X-55880D02*
D03*
X-29210D02*
D03*
X-38100D02*
D03*
X-22860Y160020D02*
D03*
X166370Y-105410D02*
D03*
X-68580Y-165100D02*
D03*
X29210Y86360D02*
D03*
X34290Y64770D02*
D03*
X10160Y62230D02*
D03*
X92710Y-67310D02*
D03*
X38100Y160020D02*
D03*
Y142240D02*
D03*
X39370Y-41910D02*
D03*
X19050Y-16510D02*
D03*
X8890Y-121920D02*
D03*
X12700Y-171326D02*
D03*
X-39370Y-167640D02*
D03*
X36830Y76200D02*
D03*
X81280Y-40640D02*
D03*
X-87630Y-30480D02*
D03*
X-67310Y-11430D02*
D03*
X-68580Y1270D02*
D03*
Y13970D02*
D03*
X-25400Y-67310D02*
D03*
X78740Y48260D02*
D03*
X60960Y26670D02*
D03*
X-58420Y62230D02*
D03*
X-78327Y-65183D02*
D03*
X-25400Y-25400D02*
D03*
X50800Y-15240D02*
D03*
X-109220Y33020D02*
D03*
X-193365Y-39370D02*
D03*
X86360Y-163830D02*
D03*
X30480Y-176530D02*
D03*
X8890Y-139700D02*
D03*
X-6350D02*
D03*
X67310Y-133350D02*
D03*
X26670Y-129540D02*
D03*
D85*
X-156210Y-179070D02*
D03*
X170180Y-160020D02*
D03*
X-212090Y214630D02*
D03*
X-208280Y-213360D02*
D03*
X213360Y-214630D02*
D03*
X-68580Y-182880D02*
D03*
X-104140D02*
D03*
X-99456Y-114300D02*
D03*
X92710Y-78740D02*
D03*
X-212090Y-194310D02*
D03*
X-191770Y-71120D02*
D03*
X-167640Y-179070D02*
D03*
X-156210Y-163830D02*
D03*
X-45720Y132080D02*
D03*
X-85107Y74947D02*
D03*
X68580Y-109220D02*
D03*
X86360Y-21590D02*
D03*
X140970Y-31750D02*
D03*
Y-43180D02*
D03*
X218440Y220980D02*
D03*
X30084Y-87630D02*
D03*
X143510Y62230D02*
D03*
X-157480Y-38100D02*
D03*
X24130Y-41910D02*
D03*
X133350Y39370D02*
D03*
X85090Y22860D02*
D03*
X-137160Y-1270D02*
D03*
D91*
X123800Y-1840D02*
D03*
Y22160D02*
D03*
X104800D02*
D03*
Y-1840D02*
D03*
X114300Y22160D02*
D03*
D92*
X163830Y37570D02*
D03*
Y66570D02*
D03*
D93*
X-86360Y-173800D02*
D03*
Y-181800D02*
D03*
D94*
X-32400Y95250D02*
D03*
Y-93150D02*
D03*
X-182400Y95250D02*
D03*
X-172400D02*
D03*
X-162400D02*
D03*
X-152400D02*
D03*
X-142400D02*
D03*
X-132400D02*
D03*
X-122400D02*
D03*
X-112400D02*
D03*
X-102400D02*
D03*
X-72400D02*
D03*
X-62400D02*
D03*
X-52400D02*
D03*
X-42400D02*
D03*
Y-93150D02*
D03*
X-52400D02*
D03*
X-62400D02*
D03*
X-72400D02*
D03*
X-82400D02*
D03*
X-102400D02*
D03*
X-112400D02*
D03*
X-122400D02*
D03*
X-132400D02*
D03*
X-142400D02*
D03*
X-152400D02*
D03*
X-162400D02*
D03*
X-172400D02*
D03*
X-182400D02*
D03*
X-82400Y95250D02*
D03*
X-192400Y-93150D02*
D03*
X-92400D02*
D03*
X-192400Y95250D02*
D03*
X-92400D02*
D03*
D95*
X-42900Y25400D02*
D03*
D96*
X-134810Y-154940D02*
D03*
Y-167640D02*
D03*
Y-180340D02*
D03*
Y-193040D02*
D03*
X-190310Y-167640D02*
D03*
Y-180340D02*
D03*
Y-193040D02*
D03*
Y-154940D02*
D03*
D97*
X-162560Y-173990D02*
D03*
D98*
X-165250Y-140970D02*
D03*
X-152250D02*
D03*
M02*
