G04*
G04 #@! TF.GenerationSoftware,Altium Limited,Altium Designer,21.0.8 (223)*
G04*
G04 Layer_Color=8388736*
%FSLAX44Y44*%
%MOMM*%
G71*
G04*
G04 #@! TF.SameCoordinates,FEFD6B0F-C875-4ADE-8CDF-9C75FE8239C7*
G04*
G04*
G04 #@! TF.FilePolarity,Negative*
G04*
G01*
G75*
%ADD41R,0.7500X1.2000*%
%ADD42R,0.9500X1.0500*%
%ADD43R,1.1500X1.0500*%
G04:AMPARAMS|DCode=44|XSize=1.95mm|YSize=1.45mm|CornerRadius=0mm|HoleSize=0mm|Usage=FLASHONLY|Rotation=225.000|XOffset=0mm|YOffset=0mm|HoleType=Round|Shape=Rectangle|*
%AMROTATEDRECTD44*
4,1,4,0.1768,1.2021,1.2021,0.1768,-0.1768,-1.2021,-1.2021,-0.1768,0.1768,1.2021,0.0*
%
%ADD44ROTATEDRECTD44*%

%ADD45R,1.5500X2.1500*%
%ADD46R,1.0500X1.1500*%
%ADD47R,0.5016X0.9516*%
%ADD48R,1.1000X1.0000*%
%ADD49R,1.3000X1.8500*%
G04:AMPARAMS|DCode=50|XSize=1.95mm|YSize=1.45mm|CornerRadius=0mm|HoleSize=0mm|Usage=FLASHONLY|Rotation=315.000|XOffset=0mm|YOffset=0mm|HoleType=Round|Shape=Rectangle|*
%AMROTATEDRECTD50*
4,1,4,-1.2021,0.1768,-0.1768,1.2021,1.2021,-0.1768,0.1768,-1.2021,-1.2021,0.1768,0.0*
%
%ADD50ROTATEDRECTD50*%

%ADD51R,1.0500X0.9500*%
%ADD52R,2.2500X5.7500*%
%ADD53O,0.3508X1.2508*%
%ADD54O,1.2508X0.3508*%
%ADD55R,0.2708X0.6908*%
%ADD56R,0.6908X0.2708*%
%ADD57C,1.6740*%
%ADD58O,1.5000X0.5500*%
G04:AMPARAMS|DCode=59|XSize=1.75mm|YSize=1.55mm|CornerRadius=0.425mm|HoleSize=0mm|Usage=FLASHONLY|Rotation=270.000|XOffset=0mm|YOffset=0mm|HoleType=Round|Shape=RoundedRectangle|*
%AMROUNDEDRECTD59*
21,1,1.7500,0.7000,0,0,270.0*
21,1,0.9000,1.5500,0,0,270.0*
1,1,0.8500,-0.3500,-0.4500*
1,1,0.8500,-0.3500,0.4500*
1,1,0.8500,0.3500,0.4500*
1,1,0.8500,0.3500,-0.4500*
%
%ADD59ROUNDEDRECTD59*%
%ADD60R,1.9500X2.0500*%
G04:AMPARAMS|DCode=61|XSize=1.45mm|YSize=1.55mm|CornerRadius=0mm|HoleSize=0mm|Usage=FLASHONLY|Rotation=45.000|XOffset=0mm|YOffset=0mm|HoleType=Round|Shape=Rectangle|*
%AMROTATEDRECTD61*
4,1,4,0.0354,-1.0607,-1.0607,0.0354,-0.0354,1.0607,1.0607,-0.0354,0.0354,-1.0607,0.0*
%
%ADD61ROTATEDRECTD61*%

G04:AMPARAMS|DCode=62|XSize=1.1mm|YSize=1mm|CornerRadius=0mm|HoleSize=0mm|Usage=FLASHONLY|Rotation=315.000|XOffset=0mm|YOffset=0mm|HoleType=Round|Shape=Rectangle|*
%AMROTATEDRECTD62*
4,1,4,-0.7425,0.0354,-0.0354,0.7425,0.7425,-0.0354,0.0354,-0.7425,-0.7425,0.0354,0.0*
%
%ADD62ROTATEDRECTD62*%

G04:AMPARAMS|DCode=63|XSize=0.95mm|YSize=1.05mm|CornerRadius=0mm|HoleSize=0mm|Usage=FLASHONLY|Rotation=225.000|XOffset=0mm|YOffset=0mm|HoleType=Round|Shape=Rectangle|*
%AMROTATEDRECTD63*
4,1,4,-0.0354,0.7071,0.7071,-0.0354,0.0354,-0.7071,-0.7071,0.0354,-0.0354,0.7071,0.0*
%
%ADD63ROTATEDRECTD63*%

G04:AMPARAMS|DCode=64|XSize=1.1mm|YSize=1mm|CornerRadius=0mm|HoleSize=0mm|Usage=FLASHONLY|Rotation=225.000|XOffset=0mm|YOffset=0mm|HoleType=Round|Shape=Rectangle|*
%AMROTATEDRECTD64*
4,1,4,0.0354,0.7425,0.7425,0.0354,-0.0354,-0.7425,-0.7425,-0.0354,0.0354,0.7425,0.0*
%
%ADD64ROTATEDRECTD64*%

G04:AMPARAMS|DCode=65|XSize=0.95mm|YSize=1.05mm|CornerRadius=0mm|HoleSize=0mm|Usage=FLASHONLY|Rotation=135.000|XOffset=0mm|YOffset=0mm|HoleType=Round|Shape=Rectangle|*
%AMROTATEDRECTD65*
4,1,4,0.7071,0.0354,-0.0354,-0.7071,-0.7071,-0.0354,0.0354,0.7071,0.7071,0.0354,0.0*
%
%ADD65ROTATEDRECTD65*%

G04:AMPARAMS|DCode=66|XSize=1.45mm|YSize=1.55mm|CornerRadius=0mm|HoleSize=0mm|Usage=FLASHONLY|Rotation=315.000|XOffset=0mm|YOffset=0mm|HoleType=Round|Shape=Rectangle|*
%AMROTATEDRECTD66*
4,1,4,-1.0607,-0.0354,0.0354,1.0607,1.0607,0.0354,-0.0354,-1.0607,-1.0607,-0.0354,0.0*
%
%ADD66ROTATEDRECTD66*%

G04:AMPARAMS|DCode=67|XSize=1.75mm|YSize=2.34mm|CornerRadius=0.475mm|HoleSize=0mm|Usage=FLASHONLY|Rotation=0.000|XOffset=0mm|YOffset=0mm|HoleType=Round|Shape=RoundedRectangle|*
%AMROUNDEDRECTD67*
21,1,1.7500,1.3900,0,0,0.0*
21,1,0.8000,2.3400,0,0,0.0*
1,1,0.9500,0.4000,-0.6950*
1,1,0.9500,-0.4000,-0.6950*
1,1,0.9500,-0.4000,0.6950*
1,1,0.9500,0.4000,0.6950*
%
%ADD67ROUNDEDRECTD67*%
%ADD68O,0.5000X1.7500*%
%ADD69O,2.6500X1.6500*%
%ADD70C,2.1500*%
%ADD71C,1.8500*%
%ADD72O,1.7500X1.0500*%
D41*
X167030Y-121700D02*
D03*
X176530D02*
D03*
X186030D02*
D03*
Y-94200D02*
D03*
X167030D02*
D03*
D42*
X177800Y-76040D02*
D03*
X168300Y-56040D02*
D03*
X187300D02*
D03*
X142240Y-76040D02*
D03*
X132740Y-56040D02*
D03*
X151740D02*
D03*
D43*
X-107950Y-14370D02*
D03*
Y-870D02*
D03*
X-86360Y-114700D02*
D03*
Y-101200D02*
D03*
X67310Y63100D02*
D03*
Y76600D02*
D03*
X-124460Y-870D02*
D03*
Y-14370D02*
D03*
X50800Y76600D02*
D03*
Y63100D02*
D03*
X67310Y119780D02*
D03*
Y106280D02*
D03*
X-68580Y-114700D02*
D03*
Y-101200D02*
D03*
Y-140570D02*
D03*
Y-154070D02*
D03*
X87630Y-152800D02*
D03*
Y-139300D02*
D03*
D44*
X-208094Y243654D02*
D03*
X-228600Y264160D02*
D03*
X231233Y-266793D02*
D03*
X210727Y-246287D02*
D03*
D45*
X-142460Y-36832D02*
D03*
X-106460D02*
D03*
D46*
X16110Y-76200D02*
D03*
X29610D02*
D03*
X101200Y-99060D02*
D03*
X114700D02*
D03*
X16110Y-59690D02*
D03*
X29610D02*
D03*
X-108820Y16510D02*
D03*
X-122320D02*
D03*
X-108820Y49530D02*
D03*
X-122320D02*
D03*
X-61830Y111760D02*
D03*
X-75330D02*
D03*
X-61830Y95250D02*
D03*
X-75330D02*
D03*
X-68980Y-64770D02*
D03*
X-55480D02*
D03*
X187090Y-139700D02*
D03*
X173590D02*
D03*
X118510Y-33020D02*
D03*
X105010D02*
D03*
X56280Y-101600D02*
D03*
X42780D02*
D03*
X56280Y-119380D02*
D03*
X42780D02*
D03*
D47*
X101450Y-78560D02*
D03*
X107950D02*
D03*
X114450D02*
D03*
Y-56060D02*
D03*
X107950D02*
D03*
X101450D02*
D03*
D48*
X129540Y1420D02*
D03*
Y-11580D02*
D03*
X97790Y1420D02*
D03*
Y-11580D02*
D03*
X71120Y-11580D02*
D03*
Y1420D02*
D03*
Y-27790D02*
D03*
Y-40790D02*
D03*
X149860Y-116990D02*
D03*
Y-103990D02*
D03*
X133350Y-103990D02*
D03*
Y-116990D02*
D03*
X-76200Y135740D02*
D03*
Y148740D02*
D03*
X-22860Y137010D02*
D03*
Y150010D02*
D03*
X-45720Y95100D02*
D03*
Y108100D02*
D03*
X-86360Y-153820D02*
D03*
Y-140820D02*
D03*
X-2540Y-57000D02*
D03*
Y-70000D02*
D03*
D49*
X98550Y21590D02*
D03*
X130050D02*
D03*
D50*
X-239937Y-210727D02*
D03*
X-260443Y-231233D02*
D03*
X273143Y237583D02*
D03*
X252637Y217077D02*
D03*
D51*
X-58260Y132740D02*
D03*
Y151740D02*
D03*
X-38260Y142240D02*
D03*
D52*
X-168910Y103380D02*
D03*
Y8380D02*
D03*
D53*
X-52900Y75280D02*
D03*
X-47900D02*
D03*
X-42900D02*
D03*
X-37900D02*
D03*
X-32900D02*
D03*
X-27900D02*
D03*
X-22900D02*
D03*
X-17900D02*
D03*
X-12900D02*
D03*
X-7900D02*
D03*
X-2900D02*
D03*
X2100D02*
D03*
X7100D02*
D03*
X12100D02*
D03*
X7100Y-39720D02*
D03*
X2100D02*
D03*
X-2900D02*
D03*
X-7900D02*
D03*
X-12900D02*
D03*
X-17900D02*
D03*
X-22900D02*
D03*
X-27900D02*
D03*
X-32900D02*
D03*
X-37900D02*
D03*
X-42900D02*
D03*
X-47900D02*
D03*
X-62900D02*
D03*
X-52900D02*
D03*
X-62900Y75280D02*
D03*
X12100Y-39720D02*
D03*
X-57900D02*
D03*
Y75280D02*
D03*
D54*
X32100Y50280D02*
D03*
Y45280D02*
D03*
Y40280D02*
D03*
Y35280D02*
D03*
Y30280D02*
D03*
Y25280D02*
D03*
Y20280D02*
D03*
Y15280D02*
D03*
Y10280D02*
D03*
Y5280D02*
D03*
Y280D02*
D03*
Y-4720D02*
D03*
Y-9720D02*
D03*
Y-14720D02*
D03*
Y-19720D02*
D03*
X-82900D02*
D03*
Y-14720D02*
D03*
Y-9720D02*
D03*
Y5280D02*
D03*
Y10280D02*
D03*
Y15280D02*
D03*
Y20280D02*
D03*
Y25280D02*
D03*
Y30280D02*
D03*
Y35280D02*
D03*
Y40280D02*
D03*
Y45280D02*
D03*
Y50280D02*
D03*
Y-4720D02*
D03*
Y55280D02*
D03*
X32100D02*
D03*
X-82900Y280D02*
D03*
D55*
X36780Y-137680D02*
D03*
X56780D02*
D03*
X40780D02*
D03*
X44780D02*
D03*
X48780D02*
D03*
X52780D02*
D03*
X56780Y-168580D02*
D03*
X52780D02*
D03*
X48780D02*
D03*
X44780D02*
D03*
X40780D02*
D03*
X36780D02*
D03*
D56*
X31330Y-147130D02*
D03*
X62230Y-159130D02*
D03*
X31330Y-163130D02*
D03*
Y-159130D02*
D03*
Y-155130D02*
D03*
Y-151130D02*
D03*
Y-143130D02*
D03*
X62230D02*
D03*
Y-147130D02*
D03*
Y-151130D02*
D03*
Y-155130D02*
D03*
Y-163130D02*
D03*
D57*
X-190500Y-215900D02*
D03*
X-196850Y203200D02*
D03*
X203200Y215900D02*
D03*
X215900Y-196850D02*
D03*
D58*
X161710Y82700D02*
D03*
Y63200D02*
D03*
Y69700D02*
D03*
Y76200D02*
D03*
Y89200D02*
D03*
D59*
X163960Y44200D02*
D03*
Y108200D02*
D03*
D60*
X188460Y64200D02*
D03*
Y88200D02*
D03*
D61*
X-284573Y261527D02*
D03*
X-264067Y282033D02*
D03*
X283303Y-262797D02*
D03*
X262797Y-283303D02*
D03*
D62*
X-235736Y213844D02*
D03*
X-226544Y223036D02*
D03*
X237006Y-216384D02*
D03*
X227814Y-225576D02*
D03*
D63*
X-252376Y227511D02*
D03*
X-259801Y248371D02*
D03*
X-238941Y240946D02*
D03*
X252376Y-228781D02*
D03*
X259801Y-249641D02*
D03*
X238941Y-242216D02*
D03*
D64*
X218924Y244626D02*
D03*
X228116Y235434D02*
D03*
X-208764Y-239546D02*
D03*
X-217956Y-230354D02*
D03*
D65*
X233861Y258727D02*
D03*
X254721Y266151D02*
D03*
X247296Y245291D02*
D03*
X-222431Y-254916D02*
D03*
X-243291Y-262341D02*
D03*
X-235866Y-241481D02*
D03*
D66*
X269147Y289653D02*
D03*
X289653Y269147D02*
D03*
X-259080Y-287020D02*
D03*
X-279586Y-266514D02*
D03*
D67*
X-176530Y-69620D02*
D03*
Y-161520D02*
D03*
X-119380Y-69620D02*
D03*
Y-161520D02*
D03*
D68*
X-52110Y-155000D02*
D03*
X-39110D02*
D03*
X-32610D02*
D03*
X-26110D02*
D03*
X-19610D02*
D03*
X-13110D02*
D03*
X-6610D02*
D03*
X-110D02*
D03*
X6390D02*
D03*
X-52110Y-99000D02*
D03*
X-39110D02*
D03*
X-32610D02*
D03*
X-26110D02*
D03*
X-19610D02*
D03*
X-13110D02*
D03*
X-6610D02*
D03*
X-110D02*
D03*
X-45610Y-155000D02*
D03*
Y-99000D02*
D03*
X6390D02*
D03*
D69*
X175260Y-21430D02*
D03*
Y-1430D02*
D03*
D70*
X-310061Y293190D02*
D03*
X-292100Y311150D02*
D03*
Y-311150D02*
D03*
X-310061Y-293190D02*
D03*
X299540Y316411D02*
D03*
X317500Y298450D02*
D03*
X311150Y-292100D02*
D03*
X293190Y-310061D02*
D03*
D71*
X-152400Y177800D02*
D03*
X-101600D02*
D03*
X-152400Y152400D02*
D03*
X-127000D02*
D03*
Y177800D02*
D03*
X-101600Y152400D02*
D03*
X127000Y177800D02*
D03*
Y127000D02*
D03*
X101600D02*
D03*
X127000Y152400D02*
D03*
X101600D02*
D03*
Y177800D02*
D03*
X-25400D02*
D03*
X-50800D02*
D03*
X-76200D02*
D03*
X0D02*
D03*
X25400D02*
D03*
X50800D02*
D03*
X76200D02*
D03*
D72*
X188460Y43200D02*
D03*
Y109200D02*
D03*
M02*
