G04*
G04 #@! TF.GenerationSoftware,Altium Limited,Altium Designer,21.0.8 (223)*
G04*
G04 Layer_Color=16711935*
%FSLAX44Y44*%
%MOMM*%
G71*
G04*
G04 #@! TF.SameCoordinates,FEFD6B0F-C875-4ADE-8CDF-9C75FE8239C7*
G04*
G04*
G04 #@! TF.FilePolarity,Negative*
G04*
G01*
G75*
%ADD43R,1.1500X1.0500*%
%ADD46R,1.0500X1.1500*%
%ADD48R,1.1000X1.0000*%
%ADD51R,1.0500X0.9500*%
%ADD57C,1.6740*%
%ADD69O,2.6500X1.6500*%
%ADD70C,2.1500*%
%ADD71C,1.8500*%
%ADD72O,1.7500X1.0500*%
%ADD99R,0.7000X0.9500*%
%ADD100R,1.5500X1.4500*%
%ADD101R,1.4000X0.6300*%
%ADD102R,0.8000X2.6900*%
%ADD103C,1.1500*%
%ADD104O,1.6000X0.7500*%
%ADD105R,2.5600X3.2500*%
%ADD106R,1.0000X1.1000*%
D43*
X-57150Y120250D02*
D03*
Y133750D02*
D03*
D46*
X107550Y-45720D02*
D03*
X121050D02*
D03*
Y-20320D02*
D03*
X107550D02*
D03*
X107150Y-101600D02*
D03*
X120650D02*
D03*
X106280Y39370D02*
D03*
X119780D02*
D03*
X-82550Y120650D02*
D03*
X-96050D02*
D03*
X-174390Y-209550D02*
D03*
X-160890D02*
D03*
D48*
X163830Y101600D02*
D03*
Y88600D02*
D03*
D51*
X104300Y-73660D02*
D03*
X124300Y-83160D02*
D03*
Y-64160D02*
D03*
X143350Y70460D02*
D03*
Y51460D02*
D03*
X123350Y60960D02*
D03*
D57*
X-41910Y-142240D02*
D03*
X-21590D02*
D03*
X-12700Y-162560D02*
D03*
X-223520Y-179070D02*
D03*
X-62230Y-142240D02*
D03*
X-82550D02*
D03*
X-102870D02*
D03*
X123190Y-140970D02*
D03*
X-3810Y-80010D02*
D03*
Y-39370D02*
D03*
Y-59690D02*
D03*
X-186690Y-127000D02*
D03*
X185420Y-168910D02*
D03*
X142240Y91440D02*
D03*
D69*
X175260Y-21430D02*
D03*
Y-1430D02*
D03*
D70*
X-310061Y293190D02*
D03*
X-292100Y311150D02*
D03*
Y-311150D02*
D03*
X-310061Y-293190D02*
D03*
X299540Y316411D02*
D03*
X317500Y298450D02*
D03*
X311150Y-292100D02*
D03*
X293190Y-310061D02*
D03*
D71*
X-152400Y177800D02*
D03*
X-101600D02*
D03*
X-152400Y152400D02*
D03*
X-127000D02*
D03*
Y177800D02*
D03*
X-101600Y152400D02*
D03*
X127000Y177800D02*
D03*
Y127000D02*
D03*
X101600D02*
D03*
X127000Y152400D02*
D03*
X101600D02*
D03*
Y177800D02*
D03*
X-25400D02*
D03*
X-50800D02*
D03*
X-76200D02*
D03*
X0D02*
D03*
X25400D02*
D03*
X50800D02*
D03*
X76200D02*
D03*
D72*
X188460Y43200D02*
D03*
Y109200D02*
D03*
D99*
X123800Y-1840D02*
D03*
Y22160D02*
D03*
X104800D02*
D03*
Y-1840D02*
D03*
X114300Y22160D02*
D03*
D100*
X163830Y37570D02*
D03*
Y66570D02*
D03*
D101*
X-86360Y-173800D02*
D03*
Y-181800D02*
D03*
D102*
X-32400Y95250D02*
D03*
Y-93150D02*
D03*
X-182400Y95250D02*
D03*
X-172400D02*
D03*
X-162400D02*
D03*
X-152400D02*
D03*
X-142400D02*
D03*
X-132400D02*
D03*
X-122400D02*
D03*
X-112400D02*
D03*
X-102400D02*
D03*
X-72400D02*
D03*
X-62400D02*
D03*
X-52400D02*
D03*
X-42400D02*
D03*
Y-93150D02*
D03*
X-52400D02*
D03*
X-62400D02*
D03*
X-72400D02*
D03*
X-82400D02*
D03*
X-102400D02*
D03*
X-112400D02*
D03*
X-122400D02*
D03*
X-132400D02*
D03*
X-142400D02*
D03*
X-152400D02*
D03*
X-162400D02*
D03*
X-172400D02*
D03*
X-182400D02*
D03*
X-82400Y95250D02*
D03*
X-192400Y-93150D02*
D03*
X-92400D02*
D03*
X-192400Y95250D02*
D03*
X-92400D02*
D03*
D103*
X-42900Y25400D02*
D03*
D104*
X-134810Y-154940D02*
D03*
Y-167640D02*
D03*
Y-180340D02*
D03*
Y-193040D02*
D03*
X-190310Y-167640D02*
D03*
Y-180340D02*
D03*
Y-193040D02*
D03*
Y-154940D02*
D03*
D105*
X-162560Y-173990D02*
D03*
D106*
X-165250Y-140970D02*
D03*
X-152250D02*
D03*
M02*
