G04*
G04 #@! TF.GenerationSoftware,Altium Limited,Altium Designer,21.0.8 (223)*
G04*
G04 Layer_Color=16711935*
%FSLAX44Y44*%
%MOMM*%
G71*
G04*
G04 #@! TF.SameCoordinates,FEFD6B0F-C875-4ADE-8CDF-9C75FE8239C7*
G04*
G04*
G04 #@! TF.FilePolarity,Positive*
G04*
G01*
G75*
%ADD107C,0.0127*%
D107*
X214680Y146312D02*
G03*
X200036Y110957I35355J-35355D01*
G01*
X398234Y298232D02*
G03*
X337845Y269477I10322J-99466D01*
G01*
X398234Y298232D02*
G03*
X299425Y397041I-9290J89519D01*
G01*
X270670Y336652D02*
G03*
X299425Y397041I-70711J70711D01*
G01*
X112150Y198843D02*
G03*
X147505Y213487I0J50000D01*
G01*
X-147434D02*
G03*
X-112079Y198843I35355J35355D01*
G01*
X-299354Y397041D02*
G03*
X-270599Y336652I99466J10322D01*
G01*
X-299354Y397041D02*
G03*
X-398163Y298232I-89519J-9290D01*
G01*
X-337774Y269477D02*
G03*
X-398163Y298232I-70711J-70711D01*
G01*
X-199964Y110957D02*
G03*
X-214609Y146312I-50000J0D01*
G01*
Y-148627D02*
G03*
X-199964Y-113272I-35355J35355D01*
G01*
X-398163Y-300547D02*
G03*
X-337774Y-271792I-10322J99466D01*
G01*
X-398163Y-300547D02*
G03*
X-299354Y-399356I9290J-89519D01*
G01*
X-270599Y-338967D02*
G03*
X-299354Y-399356I70711J-70711D01*
G01*
X-112079Y-201157D02*
G03*
X-147434Y-215802I0J-50000D01*
G01*
X147505D02*
G03*
X112150Y-201157I-35355J-35355D01*
G01*
X299425Y-399356D02*
G03*
X270670Y-338967I-99466J-10322D01*
G01*
X299425Y-399356D02*
G03*
X398234Y-300547I89519J9290D01*
G01*
X337845Y-271792D02*
G03*
X398234Y-300547I70711J70711D01*
G01*
X200036Y-113272D02*
G03*
X214680Y-148627I50000J0D01*
G01*
X329445Y387751D02*
G03*
X329445Y387751I-10500J0D01*
G01*
X448942Y437249D02*
G03*
X448942Y437249I-10500J0D01*
G01*
Y338254D02*
G03*
X448942Y338254I-10500J0D01*
G01*
X433944Y387751D02*
G03*
X433944Y387751I-45000J0D01*
G01*
Y-390066D02*
G03*
X433944Y-390066I-45000J0D01*
G01*
X349947Y-439564D02*
G03*
X349947Y-439564I-10500J0D01*
G01*
X448942D02*
G03*
X448942Y-439564I-10500J0D01*
G01*
X399444Y-320066D02*
G03*
X399444Y-320066I-10500J0D01*
G01*
X-308373Y-390066D02*
G03*
X-308373Y-390066I-10500J0D01*
G01*
X-427870Y-439564D02*
G03*
X-427870Y-439564I-10500J0D01*
G01*
Y-340569D02*
G03*
X-427870Y-340569I-10500J0D01*
G01*
X-343873Y-390066D02*
G03*
X-343873Y-390066I-45000J0D01*
G01*
Y387751D02*
G03*
X-343873Y387751I-45000J0D01*
G01*
X-328876Y437249D02*
G03*
X-328876Y437249I-10500J0D01*
G01*
X-427870D02*
G03*
X-427870Y437249I-10500J0D01*
G01*
X-378373Y317751D02*
G03*
X-378373Y317751I-10500J0D01*
G01*
X200036Y-113272D02*
Y110957D01*
X214680Y146312D02*
X337845Y269477D01*
X147505Y213487D02*
X270670Y336652D01*
X-112079Y198843D02*
X112150D01*
X-270599Y336652D02*
X-147434Y213487D01*
X-337774Y269477D02*
X-214609Y146312D01*
X-199964Y-113272D02*
Y110957D01*
X-337774Y-271792D02*
X-214609Y-148627D01*
X-270599Y-338967D02*
X-147434Y-215802D01*
X-112079Y-201157D02*
X112150D01*
X147505Y-215802D02*
X270670Y-338967D01*
X214680Y-148627D02*
X337845Y-271792D01*
M02*
