M48
;Layer_Color=9474304
;FILE_FORMAT=4:4
METRIC,LZ
;TYPE=PLATED
T1F00S00C0.3500
T2F00S00C0.4500
T4F00S00C0.7000
T5F00S00C1.0160
%
T01
X-0006858Y-001651
X-0003937Y-0016764
X-0001397Y-0017907
X000127Y-00171326
X0003048Y-0017653
X0002667Y-0012954
X0000889Y-0012192
X-0000254
X-0001143
X-0002032
X-0002921
X-000381
X-0004699
X-0005588
X-0000635Y-001397
X0000889
X0006731Y-0013335
X00077841Y-00133458
X0008636Y-0016383
X0009271Y-0006731
X0008128Y-0004064
X0005969Y-0005588
X00042267Y-00072747
X0003937Y-0004191
X000508Y-0001524
X0001905Y-0001651
X00004376Y-0001299
X-0002159Y-0000635
X-000254Y-000254
Y-0006731
X-00078327Y-00065183
X-0006731Y-0001143
X-0006858Y0000127
Y0001397
X-0005842Y0006223
X0001016
X0003429Y0006477
X0003683Y000762
X0002921Y0008636
X000381Y0014224
Y0016002
X-0002286
X0004318Y0002032
X0006096Y0002667
X0007874Y0004826
X0016637Y-0010541
X-0011938Y-0013843
X-0020447Y-0017595
X-00193365Y-0003937
X-0008763Y-0003048
X-0010922Y0003302
T02
X-0020828Y-0021336
X-0021209Y-0019431
X-0010414Y-0018288
X-0006858
X0021336Y-0021463
X0017018Y-0016002
X0014097Y-0004318
Y-0003175
X0008636Y-0002159
X0008509Y0002286
X0013335Y0003937
X0014351Y0006223
X0009271Y-0007874
X0006858Y-0010922
X00030084Y-0008763
X0002413Y-0004191
X-0004572Y0013208
X-00085107Y00074947
X-0013716Y-0000127
X-0015748Y-000381
X-0019177Y-0007112
X-0015621Y-0016383
Y-0017907
X-0016764
X-00099456Y-001143
X-0021209Y0021463
X0021844Y0022098
T04
X0017526Y-0002143
Y-0000143
T05
X-002921Y-0031115
X-00310061Y-0029319
X0029319Y-00310061
X0031115Y-002921
X00127Y00127
X001016
Y001524
X00127
Y001778
X001016
X000762
X000508
X000254
X0
X-000254
X-000508
X-000762
X-001016
X-00127
X-001524
Y001524
X-00127
X-001016
X-00310061Y0029319
X-002921Y0031115
X0029954Y00316411
X003175Y0029845
M30
